<svg version="1.1" baseProfile="full" xmlns="http://www.w3.org/2000/svg">
  <symbol viewBox="0 0 17 28" id="icon-fb">
    <path d="M5.04 27.333L5 15.666H0V10.666H5V7.33302C5 2.84002 7.787 0.666016 11.8 0.666016C13.72 0.666016 15.373 0.799016 15.853 0.866016V5.57302H13.066C10.893 5.57302 10.466 6.61302 10.466 8.13302V10.666H16.666L14.999 15.666H10.466V27.333H5.039H5.04Z"/>
  </symbol>
  <symbol viewBox="0 0 45 45" id="icon-sun">
    <path d="M22.8374 17.2125C23.9499 17.2125 25.0375 17.5424 25.9625 18.1605C26.8875 18.7786 27.6085 19.6571 28.0342 20.6849C28.46 21.7127 28.5714 22.8437 28.3543 23.9349C28.1373 25.026 27.6015 26.0283 26.8149 26.815C26.0282 27.6016 25.0259 28.1374 23.9348 28.3544C22.8436 28.5715 21.7126 28.4601 20.6848 28.0343C19.657 27.6086 18.7785 26.8876 18.1604 25.9626C17.5423 25.0376 17.2124 23.95 17.2124 22.8375C17.2143 21.3462 17.8075 19.9166 18.862 18.8621C19.9165 17.8076 21.3461 17.2144 22.8374 17.2125ZM22.8374 14.4C21.1686 14.4 19.5373 14.8949 18.1498 15.822C16.7622 16.7491 15.6808 18.0669 15.0422 19.6086C14.4036 21.1504 14.2365 22.8469 14.562 24.4836C14.8876 26.1203 15.6912 27.6237 16.8712 28.8037C18.0512 29.9837 19.5546 30.7873 21.1913 31.1129C22.828 31.4384 24.5245 31.2713 26.0663 30.6327C27.608 29.9941 28.9258 28.9127 29.8529 27.5251C30.7801 26.1376 31.2749 24.5063 31.2749 22.8375C31.2749 20.5997 30.386 18.4536 28.8036 16.8713C27.2213 15.2889 25.0752 14.4 22.8374 14.4Z"/>
    <path d="M7.58521 9.58078L9.57364 7.59094L14.504 12.5212L12.5155 14.5097L7.58521 9.58078Z"/>
    <path d="M2.8125 21.1008H9.84375V23.9133H2.8125V21.1008Z"/>
    <path d="M7.58521 35.4333L12.5155 30.503L14.504 32.4928L9.57364 37.4217L7.58521 35.4333Z"/>
    <path d="M21.0938 35.1633H23.9062V42.1945H21.0938V35.1633Z"/>
    <path d="M30.4973 32.4928L32.4858 30.503L37.4161 35.4333L35.4276 37.4217L30.4973 32.4928Z"/>
    <path d="M35.1562 21.1008H42.1875V23.9133H35.1562V21.1008Z"/>
    <path d="M30.4973 12.5212L35.4276 7.59094L37.4161 9.58078L32.4858 14.5097L30.4973 12.5212Z"/>
    <path d="M21.0938 2.81953H23.9062V9.85078H21.0938V2.81953Z"/>
  </symbol>
  <symbol viewBox="0 0 41 40" id="icon-moon">
    <path d="M21.4528 40C15.7066 40 10.315 37.8174 6.27098 33.8545C2.22701 29.8915 5.02421e-07 24.6074 5.02421e-07 18.9761C-0.00085731 15.0913 1.09674 11.2823 3.17098 7.97181C5.24521 4.66132 8.21494 1.97886 11.7505 0.222165C12.1143 0.0404498 12.5246 -0.032245 12.9302 0.0131555C13.3359 0.058556 13.7189 0.220041 14.0315 0.477451C14.344 0.734861 14.5723 1.07679 14.6878 1.46057C14.8033 1.84434 14.8009 2.25294 14.6809 2.63538C13.672 5.82896 13.5728 9.23201 14.3941 12.4768C15.2154 15.7216 16.9259 18.6847 19.3408 21.046C21.0739 22.757 23.136 24.1141 25.4078 25.0388C27.6796 25.9635 30.116 26.4374 32.576 26.433C34.4579 26.4345 36.3292 26.1578 38.1269 25.6125C38.5172 25.4948 38.9342 25.4924 39.3258 25.6056C39.7175 25.7188 40.0665 25.9425 40.3291 26.2488C40.5918 26.5552 40.7566 26.9306 40.8029 27.3282C40.8492 27.7257 40.775 28.1279 40.5895 28.4843C38.7969 31.9492 36.0597 34.8596 32.6817 36.8923C29.3036 38.9251 25.4169 40.0008 21.4528 40ZM11.6763 3.31431C8.93463 4.94908 6.66986 7.24958 5.10105 9.99327C3.53225 12.737 2.71252 15.831 2.72115 18.9761C2.72115 29.0982 11.1241 37.3333 21.4528 37.3333C24.6621 37.3418 27.8193 36.5384 30.619 35.001C33.4187 33.4636 35.7662 31.2441 37.4343 28.5573C35.8413 28.9186 34.2113 29.1007 32.5762 29.1C29.7587 29.1053 26.9682 28.5628 24.3661 27.5041C21.764 26.4453 19.4021 24.8913 17.417 22.9319C14.8382 20.4094 12.9578 17.2845 11.9533 13.8522C10.9489 10.4199 10.8536 6.79329 11.6763 3.31481V3.31431Z"/>
  </symbol>
  <symbol viewBox="0 0 28 28" id="icon-inst">
    <path d="M15.36.667c2.4 0 2.907.027 4.133.08 1.413.067 2.387.293 3.227.627.88.333 1.627.8 2.36 1.533.747.733 1.2 1.48 1.547 2.36.333.84.547 1.813.613 3.24.067 1.267.08 1.76.08 4.427v2.133c0 2.667-.013 3.16-.08 4.427a9.763 9.763 0 0 1-.636 3.294l.022-.067c-.347.88-.8 1.627-1.533 2.36a6.632 6.632 0 0 1-2.373 1.547c-.84.333-1.813.547-3.227.613-1.267.067-1.773.08-4.44.08h-2.12c-2.667 0-3.16-.013-4.44-.08a9.763 9.763 0 0 1-3.294-.636l.067.022a6.575 6.575 0 0 1-2.359-1.533l-.001-.001a6.544 6.544 0 0 1-1.532-2.329l-.015-.045a9.59 9.59 0 0 1-.613-3.217v-.01a70.693 70.693 0 0 1-.08-4.167v.034-2.733c0-2.4.027-2.907.08-4.133.067-1.413.293-2.387.613-3.227.347-.88.8-1.627 1.547-2.36a6.27 6.27 0 0 1 2.317-1.519l.043-.014A9.576 9.576 0 0 1 8.481.747h.012c1.227-.053 1.733-.08 4.133-.08h2.734Zm.027 2.4H12.6c-2.307 0-2.8.027-4 .08-1.293.053-2 .267-2.467.453a4.068 4.068 0 0 0-1.533 1c-.466.467-.76.907-1 1.533-.173.467-.4 1.173-.453 2.48-.053 1.2-.08 1.68-.08 4v2.773c0 2.32.027 2.8.08 4 .053 1.293.267 2 .453 2.467.24.627.533 1.067 1 1.533.467.466.907.76 1.533 1 .467.187 1.173.4 2.48.453 1.293.067 1.76.08 4.64.08h1.48c2.893 0 3.347-.013 4.653-.08 1.293-.053 2-.267 2.467-.453a4.068 4.068 0 0 0 1.533-1c.466-.467.76-.907 1-1.533.187-.467.4-1.173.453-2.467.067-1.307.08-1.76.08-4.653v-1.467c0-2.893-.013-3.36-.08-4.667-.053-1.293-.267-2-.453-2.467a4.142 4.142 0 0 0-.999-1.532l-.001-.001a4.141 4.141 0 0 0-1.505-.991l-.028-.009a7.322 7.322 0 0 0-2.462-.453h-.005a70.03 70.03 0 0 0-4.03-.08h.03l.001.001ZM14 7.147a6.847 6.847 0 1 1 0 13.694 6.847 6.847 0 0 1 0-13.694Zm0 2.4a4.447 4.447 0 1 0 0 8.894 4.447 4.447 0 0 0 0-8.894Zm7.107-4.267a1.6 1.6 0 1 1 0 3.2 1.6 1.6 0 0 1 0-3.2Z"/>
  </symbol>
  <symbol viewBox="0 0 28 22" id="icon-tw">
    <path d="M27.333 2.83998C26.333 3.33298 25.333 3.50698 24.16 3.66698C25.333 2.99998 26.16 1.99998 26.493 0.666984C25.488 1.27498 24.317 1.73798 23.07 1.98898L23 2.00098C21.969 0.986984 20.56 0.354984 19.004 0.333984H19C16.16 0.333984 13.667 2.84098 13.667 5.84098C13.667 6.33398 13.667 6.66798 13.84 7.00098C9.26197 6.82298 5.22097 4.66398 2.52897 1.36198L2.50697 1.33398C2.08197 2.05998 1.83097 2.93198 1.83097 3.86298C1.83097 3.97198 1.83397 4.08098 1.84097 4.18898L1.83997 4.17398C1.87397 6.05198 2.84897 7.69498 4.31297 8.65498L4.33397 8.66798C3.49397 8.66798 2.66697 8.33498 1.82697 8.00098C1.82697 10.668 3.66697 12.841 6.15997 13.334C5.66697 13.507 5.15997 13.507 4.66697 13.507C4.33397 13.507 3.99997 13.507 3.66697 13.334C4.33397 15.507 6.33397 17.174 8.83997 17.174C7.03997 18.629 4.72397 19.509 2.20297 19.509C2.13197 19.509 2.06097 19.508 1.98997 19.507H2.00097H0.667969C3.03297 21.016 5.90397 21.936 8.98397 22H9.00097C19.001 22 24.508 13.667 24.508 6.49298V5.82598C25.655 5.03598 26.601 4.03898 27.311 2.88198L27.335 2.83998H27.333Z"/>
  </symbol>
  <symbol viewBox="0 0 28 28" id="icon-pinterest">
    <path d="M14 .667C6.657.694.714 6.653.714 14c0 5.599 3.452 10.393 8.343 12.368l.089.032c-.133-1.053-.227-2.667.04-3.827l1.56-6.627s-.4-.8-.4-1.973c0-1.853 1.08-3.227 2.427-3.227 1.133 0 1.693.853 1.693 1.867 0 1.147-.733 2.853-1.12 4.44-.32 1.333.667 2.413 1.987 2.413 2.373 0 4.187-2.493 4.187-6.093 0-3.2-2.293-5.413-5.573-5.413a5.773 5.773 0 0 0-6.026 5.767v.006c0 1.147.44 2.373.987 3.04.107.133.12.253.08.387l-.373 1.507c-.053.24-.2.307-.44.187-1.68-.787-2.72-3.2-2.72-5.173 0-4.2 3.067-8.053 8.827-8.053 4.613 0 8.227 3.28 8.227 7.693 0 4.6-2.907 8.293-6.933 8.293-1.333 0-2.613-.707-3.04-1.533l-.84 3.16a14.615 14.615 0 0 1-1.688 3.563l.034-.056c1.17.372 2.516.587 3.911.587 7.364 0 13.333-5.97 13.333-13.333 0-7.347-5.942-13.306-13.282-13.333h-.003L14 .667Z"/>
  </symbol>
  <symbol viewBox="0 0 130 130" id="icon-play">
    <path d="M58.521.136c-.5.12-2.951.55-5.448.955C6.174 8.698-16.008 65.904 13.026 104.367c9.042 11.977 29.806 25.539 30.835 20.139.129-.674-1.108-1.528-4.176-2.882-12.586-5.559-23.975-16.512-30.19-29.03-22.57-45.466 16.045-96.917 66.47-88.565 7.575 1.255 8.89-1.361 1.467-2.918C74.053.403 60.344-.304 58.52.136Zm.303 13.407c-8.868 1.306-20.279 5.847-20.279 8.068 0 1.724 1.281 1.59 5.961-.62 25.636-12.113 56.848 1.14 66.134 28.08 15.435 44.781-35.52 82.689-74.213 55.208-21.5-15.27-26.459-45.6-11.024-67.44 4.096-5.795 1.94-8.245-2.242-2.548-25.769 35.106 1.135 84.691 44.61 82.216 43.887-2.499 64.87-55.086 34.67-86.888-11.072-11.658-28.932-18.241-43.617-16.078v.002Zm52.764 7.906c-.9.9-.212 2.511 2.669 6.255 21.363 27.754 14.369 69.239-14.963 88.756-13.217 8.795-24.822 11.232-46.523 9.773-2.044-.137-2.422.019-2.422 1.004 0 4.474 25.975 3.261 38.854-1.815 37.765-14.883 52.655-62.927 29.891-96.448-4.32-6.36-6.492-8.539-7.506-7.525ZM47.265 44.11c-1.074 1.185-1.166 2.576-1.33 20.092-.27 28.797-3.137 27.926 31.634 9.608 16.945-8.928 17.04-8.648-7.263-21.397-19.002-9.967-20.911-10.656-23.041-8.303Zm20.999 10.894c18.462 9.643 18.558 9.703 17.267 10.775C84.083 66.982 51.16 84 50.285 84c-.704 0-.844-3.165-.844-19.068 0-13.375.198-19.068.661-19.068.363 0 8.537 4.114 18.162 9.141Z"/>
  </symbol>
  <symbol viewBox="0 0 50 50" id="icon-logo">
    <path d="M20.45 5.26c-1.358.437-2.504 1.217-2.79 1.896l-.12.286-1.884-.009-.244-.503c-.187-.383-.349-.56-.686-.743l-.44-.241h-3.18c-4.171 0-4.697.207-4.697 1.858v.464l-.71.347c-2.615 1.277-4.664 3.801-5.473 6.74l-.226.82v10.083c0 11.012-.033 10.3.547 11.859 1.301 3.492 4.316 6.018 8.002 6.709 1.24.232 31.662.232 32.902 0 3.686-.69 6.701-3.216 8.002-6.71.58-1.558.547-.846.547-11.858V16.175l-.217-.772c-1.134-4.038-4.04-6.791-8.149-7.724-.614-.14-1.42-.174-4.958-.21l-4.223-.045-.116-.277c-.287-.681-1.516-1.501-2.87-1.914-1.068-.325-7.991-.305-9.016.026Zm19.61 5.562c2.993.304 5.326 2.13 6.338 4.965l.275.772.028 9.312c.032 10.648.064 10.15-.777 11.863-.948 1.928-2.86 3.386-4.995 3.811-1.143.228-30.718.228-31.858 0-2.155-.43-4.06-1.917-5.062-3.95-.764-1.552-.742-1.188-.71-11.724l.028-9.312.304-.843c.977-2.7 3.365-4.6 6.143-4.887 1.185-.122 29.078-.13 30.286-.008v.001ZM9.517 11.888c-3.138.454-5.163 3.006-5.163 6.51v1.297h6.712l.225-.458c.993-2.025 2.993-4.22 5.145-5.65.804-.535 2.925-1.61 3.175-1.61.058 0 .105-.044.105-.098 0-.118-9.37-.111-10.199.008v.001Zm20.767-.033c0 .045.165.14.367.21 3.07 1.064 6.811 4.405 8.088 7.221l.186.41h6.722V18.4c0-3.27-1.513-5.415-4.5-6.382-.589-.19-10.862-.343-10.862-.161l-.001-.001Zm-6.213.663c-11.405 1.098-16.939 13.457-9.978 22.28 7.696 9.753 23.784 4.904 24.793-7.474.675-8.29-6.633-15.593-14.815-14.806Zm2.593 3.427c6.569.93 10.664 8.018 8.164 14.132-2.88 7.045-12.12 8.85-17.414 3.403-7.023-7.226-.832-18.961 9.25-17.534Zm-2.792 1.627c-5.91.823-9.319 6.775-6.983 12.198 2.68 6.224 11.672 6.996 15.487 1.33 4.175-6.2-1.081-14.56-8.504-13.528Zm3.845 1.338c1.141.35 1.995 1.167 2.015 1.927.046 1.752-3.503 1.696-4.69-.073-.903-1.345.705-2.459 2.675-1.854ZM22.7 32.255c1.081.225 2.691 1.2 2.691 1.63 0 1.002-3.634.354-4.695-.836-.733-.825.16-1.178 2.004-.794ZM41.913 36c-2.02.618-1.628 3.387.477 3.38 2.14-.006 2.3-3.116.174-3.406-.215-.03-.508-.017-.651.027Z"/>
</svg>